<?xml version="1.0" encoding="UTF-8" standalone="no"?><!DOCTYPE svg PUBLIC "-//W3C//DTD SVG 1.1//EN" "http://www.w3.org/Graphics/SVG/1.1/DTD/svg11.dtd"><svg width="100%" height="100%" viewBox="0 0 231 231" version="1.1" xmlns="http://www.w3.org/2000/svg" xmlns:xlink="http://www.w3.org/1999/xlink" xml:space="preserve" xmlns:serif="http://www.serif.com/" style="fill-rule:evenodd;clip-rule:evenodd;stroke-linejoin:round;stroke-miterlimit:2;"><path d="M228.065,125.587l-51.619,-51.615l0,-50.709c0,-4.142 -3.357,-7.5 -7.5,-7.5c-4.143,0 -7.5,3.358 -7.5,7.5l0,35.709l-41.016,-41.012c-2.928,-2.929 -7.677,-2.928 -10.606,0l-107.627,107.627c-2.929,2.929 -2.929,7.678 0,10.606c2.93,2.929 7.678,2.929 10.608,0l18.72,-18.72l0,89.525c0,4.142 3.357,7.5 7.5,7.5l152.215,0c4.143,0 7.5,-3.358 7.5,-7.5l0,-89.524l18.721,18.719c1.464,1.464 3.384,2.196 5.303,2.196c1.919,0 3.839,-0.732 5.304,-2.197c2.926,-2.928 2.926,-7.676 -0.003,-10.605Zm-44.326,73.912l-137.215,0l0,-97.025l68.604,-68.604l68.611,68.606l0,97.023Z" style="fill:#c3c8d4;fill-rule:nonzero;"/></svg>